<svg width="123" height="1080" viewBox="0 0 123 1080" fill="none" xmlns="http://www.w3.org/2000/svg">
<rect width="123" height="1080" fill="black"/>
<path d="M9.484 1054.2H12.124V1071H9.484V1054.2ZM16.1652 1056.6H13.4052V1054.2H21.5652V1056.6H18.8052V1071H16.1652V1056.6ZM26.2754 1071.24C24.9954 1071.24 24.0274 1070.88 23.3714 1070.16C22.7154 1069.42 22.3874 1068.38 22.3874 1067.02V1066.06H24.8834V1067.21C24.8834 1068.3 25.3394 1068.84 26.2514 1068.84C26.6994 1068.84 27.0354 1068.71 27.2594 1068.46C27.4994 1068.18 27.6194 1067.75 27.6194 1067.16C27.6194 1066.46 27.4594 1065.84 27.1394 1065.31C26.8194 1064.77 26.2274 1064.12 25.3634 1063.37C24.2754 1062.41 23.5154 1061.54 23.0834 1060.78C22.6514 1059.99 22.4354 1059.11 22.4354 1058.14C22.4354 1056.81 22.7714 1055.78 23.4434 1055.06C24.1154 1054.33 25.0914 1053.96 26.3714 1053.96C27.6354 1053.96 28.5874 1054.33 29.2274 1055.06C29.8834 1055.78 30.2114 1056.82 30.2114 1058.18V1058.88H27.7154V1058.02C27.7154 1057.44 27.6034 1057.02 27.3794 1056.77C27.1554 1056.5 26.8274 1056.36 26.3954 1056.36C25.5154 1056.36 25.0754 1056.9 25.0754 1057.97C25.0754 1058.58 25.2354 1059.14 25.5554 1059.67C25.8914 1060.2 26.4914 1060.84 27.3554 1061.59C28.4594 1062.55 29.2194 1063.42 29.6354 1064.21C30.0514 1064.99 30.2594 1065.91 30.2594 1066.97C30.2594 1068.34 29.9154 1069.4 29.2274 1070.14C28.5554 1070.87 27.5714 1071.24 26.2754 1071.24ZM35.5171 1071.24C34.2371 1071.24 33.2611 1070.88 32.5891 1070.16C31.9171 1069.42 31.5811 1068.38 31.5811 1067.02V1058.18C31.5811 1056.82 31.9171 1055.78 32.5891 1055.06C33.2611 1054.33 34.2371 1053.96 35.5171 1053.96C36.7971 1053.96 37.7731 1054.33 38.4451 1055.06C39.1171 1055.78 39.4531 1056.82 39.4531 1058.18V1059.62H36.9571V1058.02C36.9571 1056.91 36.5011 1056.36 35.5891 1056.36C34.6771 1056.36 34.2211 1056.91 34.2211 1058.02V1067.21C34.2211 1068.3 34.6771 1068.84 35.5891 1068.84C36.5011 1068.84 36.9571 1068.3 36.9571 1067.21V1063.92H35.6371V1061.52H39.4531V1067.02C39.4531 1068.38 39.1171 1069.42 38.4451 1070.16C37.7731 1070.88 36.7971 1071.24 35.5171 1071.24ZM41.1481 1054.2H45.0601C46.4201 1054.2 47.4121 1054.52 48.0361 1055.16C48.6601 1055.78 48.9721 1056.75 48.9721 1058.06V1059.1C48.9721 1060.84 48.3961 1061.94 47.2441 1062.41V1062.46C47.8841 1062.65 48.3321 1063.04 48.5881 1063.63C48.8601 1064.22 48.9961 1065.02 48.9961 1066.01V1068.96C48.9961 1069.44 49.0121 1069.83 49.0441 1070.14C49.0761 1070.42 49.1561 1070.71 49.2841 1071H46.5961C46.5001 1070.73 46.4361 1070.47 46.4041 1070.23C46.3721 1069.99 46.3561 1069.56 46.3561 1068.94V1065.86C46.3561 1065.1 46.2281 1064.56 45.9721 1064.26C45.7321 1063.95 45.3081 1063.8 44.7001 1063.8H43.7881V1071H41.1481V1054.2ZM44.7481 1061.4C45.2761 1061.4 45.6681 1061.26 45.9241 1060.99C46.1961 1060.72 46.3321 1060.26 46.3321 1059.62V1058.33C46.3321 1057.72 46.2201 1057.28 45.9961 1057.01C45.7881 1056.74 45.4521 1056.6 44.9881 1056.6H43.7881V1061.4H44.7481ZM52.8678 1054.2H56.4438L59.1798 1071H56.5398L56.0598 1067.66V1067.71H53.0598L52.5798 1071H50.1318L52.8678 1054.2ZM55.7478 1065.43L54.5718 1057.13H54.5238L53.3717 1065.43H55.7478ZM59.0849 1054.2H61.7489L63.4769 1067.23H63.5249L65.2529 1054.2H67.6769L65.1329 1071H61.6289L59.0849 1054.2ZM68.9449 1054.2H76.1449V1056.6H71.5849V1061.04H75.2089V1063.44H71.5849V1068.6H76.1449V1071H68.9449V1054.2ZM81.1426 1071.24C79.8626 1071.24 78.8946 1070.88 78.2386 1070.16C77.5826 1069.42 77.2546 1068.38 77.2546 1067.02V1066.06H79.7506V1067.21C79.7506 1068.3 80.2066 1068.84 81.1186 1068.84C81.5666 1068.84 81.9026 1068.71 82.1266 1068.46C82.3666 1068.18 82.4866 1067.75 82.4866 1067.16C82.4866 1066.46 82.3266 1065.84 82.0066 1065.31C81.6866 1064.77 81.0946 1064.12 80.2306 1063.37C79.1426 1062.41 78.3826 1061.54 77.9506 1060.78C77.5186 1059.99 77.3026 1059.11 77.3026 1058.14C77.3026 1056.81 77.6386 1055.78 78.3106 1055.06C78.9826 1054.33 79.9586 1053.96 81.2386 1053.96C82.5026 1053.96 83.4546 1054.33 84.0946 1055.06C84.7506 1055.78 85.0786 1056.82 85.0786 1058.18V1058.88H82.5826V1058.02C82.5826 1057.44 82.4706 1057.02 82.2466 1056.77C82.0226 1056.5 81.6946 1056.36 81.2626 1056.36C80.3826 1056.36 79.9426 1056.9 79.9426 1057.97C79.9426 1058.58 80.1026 1059.14 80.4226 1059.67C80.7586 1060.2 81.3586 1060.84 82.2226 1061.59C83.3266 1062.55 84.0866 1063.42 84.5026 1064.21C84.9186 1064.99 85.1266 1065.91 85.1266 1066.97C85.1266 1068.34 84.7826 1069.4 84.0946 1070.14C83.4226 1070.87 82.4386 1071.24 81.1426 1071.24ZM88.7043 1056.6H85.9443V1054.2H94.1043V1056.6H91.3443V1071H88.7043V1056.6ZM95.3824 1054.2H98.0224V1061.04H100.854V1054.2H103.494V1071H100.854V1063.44H98.0224V1071H95.3824V1054.2ZM109.277 1071.24C107.981 1071.24 106.989 1070.87 106.301 1070.14C105.613 1069.4 105.269 1068.36 105.269 1067.02V1058.18C105.269 1056.84 105.613 1055.8 106.301 1055.06C106.989 1054.33 107.981 1053.96 109.277 1053.96C110.573 1053.96 111.565 1054.33 112.253 1055.06C112.941 1055.8 113.285 1056.84 113.285 1058.18V1067.02C113.285 1068.36 112.941 1069.4 112.253 1070.14C111.565 1070.87 110.573 1071.24 109.277 1071.24ZM109.277 1068.84C110.189 1068.84 110.645 1068.29 110.645 1067.18V1058.02C110.645 1056.91 110.189 1056.36 109.277 1056.36C108.365 1056.36 107.909 1056.91 107.909 1058.02V1067.18C107.909 1068.29 108.365 1068.84 109.277 1068.84Z" fill="white"/>
<rect x="56" y="40" width="12" height="960" rx="6" fill="white" fill-opacity="0.2"/>
</svg>
