<svg width="123" height="1080" viewBox="0 0 123 1080" fill="none" xmlns="http://www.w3.org/2000/svg">
<rect width="123" height="1080" fill="black"/>
<path d="M14.984 1046.2H17.624V1063H14.984V1046.2ZM21.6652 1048.6H18.9052V1046.2H27.0652V1048.6H24.3052V1063H21.6652V1048.6ZM31.7754 1063.24C30.4954 1063.24 29.5274 1062.88 28.8714 1062.16C28.2154 1061.42 27.8874 1060.38 27.8874 1059.02V1058.06H30.3834V1059.21C30.3834 1060.3 30.8394 1060.84 31.7514 1060.84C32.1994 1060.84 32.5354 1060.71 32.7594 1060.46C32.9994 1060.18 33.1194 1059.75 33.1194 1059.16C33.1194 1058.46 32.9594 1057.84 32.6394 1057.31C32.3194 1056.77 31.7274 1056.12 30.8634 1055.37C29.7754 1054.41 29.0154 1053.54 28.5834 1052.78C28.1514 1051.99 27.9354 1051.11 27.9354 1050.14C27.9354 1048.81 28.2714 1047.78 28.9434 1047.06C29.6154 1046.33 30.5914 1045.96 31.8714 1045.96C33.1354 1045.96 34.0874 1046.33 34.7274 1047.06C35.3834 1047.78 35.7114 1048.82 35.7114 1050.18V1050.88H33.2154V1050.02C33.2154 1049.44 33.1034 1049.02 32.8794 1048.77C32.6554 1048.5 32.3274 1048.36 31.8954 1048.36C31.0154 1048.36 30.5754 1048.9 30.5754 1049.97C30.5754 1050.58 30.7354 1051.14 31.0554 1051.67C31.3914 1052.2 31.9914 1052.84 32.8554 1053.59C33.9594 1054.55 34.7194 1055.42 35.1354 1056.21C35.5514 1056.99 35.7594 1057.91 35.7594 1058.97C35.7594 1060.34 35.4154 1061.4 34.7274 1062.14C34.0554 1062.87 33.0714 1063.24 31.7754 1063.24ZM41.0171 1063.24C39.7371 1063.24 38.7611 1062.88 38.0891 1062.16C37.4171 1061.42 37.0811 1060.38 37.0811 1059.02V1050.18C37.0811 1048.82 37.4171 1047.78 38.0891 1047.06C38.7611 1046.33 39.7371 1045.96 41.0171 1045.96C42.2971 1045.96 43.2731 1046.33 43.9451 1047.06C44.6171 1047.78 44.9531 1048.82 44.9531 1050.18V1051.62H42.4571V1050.02C42.4571 1048.91 42.0011 1048.36 41.0891 1048.36C40.1771 1048.36 39.7211 1048.91 39.7211 1050.02V1059.21C39.7211 1060.3 40.1771 1060.84 41.0891 1060.84C42.0011 1060.84 42.4571 1060.3 42.4571 1059.21V1055.92H41.1371V1053.52H44.9531V1059.02C44.9531 1060.38 44.6171 1061.42 43.9451 1062.16C43.2731 1062.88 42.2971 1063.24 41.0171 1063.24ZM46.6481 1046.2H50.5601C51.9201 1046.2 52.9121 1046.52 53.5361 1047.16C54.1601 1047.78 54.4721 1048.75 54.4721 1050.06V1051.1C54.4721 1052.84 53.8961 1053.94 52.7441 1054.41V1054.46C53.3841 1054.65 53.8321 1055.04 54.0881 1055.63C54.3601 1056.22 54.4961 1057.02 54.4961 1058.01V1060.96C54.4961 1061.44 54.5121 1061.83 54.5441 1062.14C54.5761 1062.42 54.6561 1062.71 54.7841 1063H52.0961C52.0001 1062.73 51.9361 1062.47 51.9041 1062.23C51.8721 1061.99 51.8561 1061.56 51.8561 1060.94V1057.86C51.8561 1057.1 51.7281 1056.56 51.4721 1056.26C51.2321 1055.95 50.8081 1055.8 50.2001 1055.8H49.2881V1063H46.6481V1046.2ZM50.2481 1053.4C50.7761 1053.4 51.1681 1053.26 51.4241 1052.99C51.6961 1052.72 51.8321 1052.26 51.8321 1051.62V1050.33C51.8321 1049.72 51.7201 1049.28 51.4961 1049.01C51.2881 1048.74 50.9521 1048.6 50.4881 1048.6H49.2881V1053.4H50.2481ZM58.3678 1046.2H61.9438L64.6798 1063H62.0398L61.5598 1059.66V1059.71H58.5598L58.0798 1063H55.6318L58.3678 1046.2ZM61.2478 1057.43L60.0718 1049.13H60.0238L58.8717 1057.43H61.2478ZM64.5849 1046.2H67.2489L68.9769 1059.23H69.0249L70.7529 1046.2H73.1769L70.6329 1063H67.1289L64.5849 1046.2ZM74.4449 1046.2H81.6449V1048.6H77.0849V1053.04H80.7089V1055.44H77.0849V1060.6H81.6449V1063H74.4449V1046.2ZM86.6426 1063.24C85.3626 1063.24 84.3946 1062.88 83.7386 1062.16C83.0826 1061.42 82.7546 1060.38 82.7546 1059.02V1058.06H85.2506V1059.21C85.2506 1060.3 85.7066 1060.84 86.6186 1060.84C87.0666 1060.84 87.4026 1060.71 87.6266 1060.46C87.8666 1060.18 87.9866 1059.75 87.9866 1059.16C87.9866 1058.46 87.8266 1057.84 87.5066 1057.31C87.1866 1056.77 86.5946 1056.12 85.7306 1055.37C84.6426 1054.41 83.8826 1053.54 83.4506 1052.78C83.0186 1051.99 82.8026 1051.11 82.8026 1050.14C82.8026 1048.81 83.1386 1047.78 83.8106 1047.06C84.4826 1046.33 85.4586 1045.96 86.7386 1045.96C88.0026 1045.96 88.9546 1046.33 89.5946 1047.06C90.2506 1047.78 90.5786 1048.82 90.5786 1050.18V1050.88H88.0826V1050.02C88.0826 1049.44 87.9706 1049.02 87.7466 1048.77C87.5226 1048.5 87.1946 1048.36 86.7626 1048.36C85.8826 1048.36 85.4426 1048.9 85.4426 1049.97C85.4426 1050.58 85.6026 1051.14 85.9226 1051.67C86.2586 1052.2 86.8586 1052.84 87.7226 1053.59C88.8266 1054.55 89.5866 1055.42 90.0026 1056.21C90.4186 1056.99 90.6266 1057.91 90.6266 1058.97C90.6266 1060.34 90.2826 1061.4 89.5946 1062.14C88.9226 1062.87 87.9386 1063.24 86.6426 1063.24ZM94.4236 1055.85L91.2316 1046.2H94.0396L95.8396 1052.37H95.8876L97.6876 1046.2H100.256L97.0636 1055.85V1063H94.4236V1055.85ZM104.839 1063.24C103.543 1063.24 102.551 1062.87 101.863 1062.14C101.175 1061.4 100.831 1060.36 100.831 1059.02V1050.18C100.831 1048.84 101.175 1047.8 101.863 1047.06C102.551 1046.33 103.543 1045.96 104.839 1045.96C106.135 1045.96 107.127 1046.33 107.815 1047.06C108.503 1047.8 108.847 1048.84 108.847 1050.18V1059.02C108.847 1060.36 108.503 1061.4 107.815 1062.14C107.127 1062.87 106.135 1063.24 104.839 1063.24ZM104.839 1060.84C105.751 1060.84 106.207 1060.29 106.207 1059.18V1050.02C106.207 1048.91 105.751 1048.36 104.839 1048.36C103.927 1048.36 103.471 1048.91 103.471 1050.02V1059.18C103.471 1060.29 103.927 1060.84 104.839 1060.84Z" fill="white"/>
<rect x="56" y="40" width="12" height="960" rx="6" fill="white" fill-opacity="0.2"/>
</svg>
