<svg width="123" height="1080" viewBox="0 0 123 1080" fill="none" xmlns="http://www.w3.org/2000/svg">
<g clip-path="url(#clip0_10_33)">
<path d="M123 0H0V1080H123V0Z" fill="#010202"/>
<path d="M123 0H122V1080H123V0Z" fill="#262626"/>
<path d="M122.5 122H0V123H122.5V122Z" fill="#262626"/>
<path fill-rule="evenodd" clip-rule="evenodd" d="M69.7996 1014.1C69.4996 1013.8 68.8996 1013.8 68.5996 1014.1L62.5996 1019.3L56.5996 1014.1C56.2996 1013.8 55.6996 1013.8 55.3996 1014.1C55.1996 1014.2 55.0996 1014.4 55.0996 1014.6C55.0996 1014.8 55.1996 1015 55.3996 1015.1L61.9996 1020.8C62.1996 1020.9 62.3996 1021 62.5996 1021C62.7996 1021 63.0996 1020.9 63.1996 1020.8L69.7996 1015.1C70.0996 1014.9 70.0996 1014.4 69.7996 1014.1Z" fill="#545457"/>
<path fill-rule="evenodd" clip-rule="evenodd" d="M69.7996 1007.1C69.4996 1006.8 68.8996 1006.8 68.5996 1007.1L62.5996 1012.3L56.5996 1007.1C56.2996 1006.8 55.6996 1006.8 55.3996 1007.1C55.1996 1007.2 55.0996 1007.4 55.0996 1007.6C55.0996 1007.8 55.1996 1008 55.3996 1008.1L61.9996 1013.8C62.1996 1013.9 62.3996 1014 62.5996 1014C62.7996 1014 63.0996 1013.9 63.1996 1013.8L69.7996 1008.1C70.0996 1007.9 70.0996 1007.4 69.7996 1007.1Z" fill="#2C2C2E"/>
<path fill-rule="evenodd" clip-rule="evenodd" d="M69.7996 1000.2C69.4996 999.9 68.8996 999.9 68.5996 1000.2L62.5996 1005.4L56.5996 1000.2C56.2996 999.9 55.6996 999.9 55.3996 1000.2C55.1996 1000.3 55.0996 1000.5 55.0996 1000.7C55.0996 1000.9 55.1996 1001.1 55.3996 1001.2L61.9996 1006.9C62.1996 1007 62.3996 1007.1 62.5996 1007.1C62.7996 1007.1 63.0996 1007 63.1996 1006.9L69.7996 1001.2C70.0996 1001 70.0996 1000.5 69.7996 1000.2Z" fill="#1F1F20"/>
<path d="M69.4004 810.9H68.7004C68.5004 810.9 68.3004 810.7 68.2004 810.5C68.1004 810 67.8004 809.5 67.6004 809C67.5004 808.8 67.5004 808.6 67.7004 808.4L68.2004 807.9C68.4004 807.7 68.4004 807.3 68.2004 807.1L67.4004 806.3C67.2004 806.1 66.8004 806.1 66.6004 806.3L66.1004 806.8C66.0004 806.9 65.7004 807 65.5004 806.9C65.0004 806.6 64.5004 806.4 64.0004 806.3C63.8004 806.2 63.6004 806 63.6004 805.8V805.1C63.6004 804.8 63.3004 804.5 63.0004 804.5H61.9004C61.6004 804.5 61.3004 804.8 61.3004 805.1V805.8C61.3004 806 61.1004 806.2 60.9004 806.3C60.4004 806.4 59.9004 806.7 59.4004 806.9C59.2004 807 59.0004 807 58.8004 806.8L58.3004 806.3C58.1004 806.1 57.7004 806.1 57.5004 806.3L56.7004 807.1C56.5004 807.3 56.5004 807.7 56.7004 807.9L57.2004 808.4C57.4004 808.6 57.4004 808.8 57.3004 809C57.0004 809.5 56.8004 810 56.7004 810.5C56.6004 810.7 56.4004 810.9 56.2004 810.9H55.5004C55.2004 810.9 54.9004 811.2 54.9004 811.5V812.6C54.9004 812.9 55.2004 813.2 55.5004 813.2H56.2004C56.4004 813.2 56.6004 813.4 56.7004 813.6C56.8004 814.1 57.1004 814.6 57.3004 815.1C57.4004 815.3 57.4004 815.5 57.2004 815.7L56.7004 816.2C56.5004 816.4 56.5004 816.8 56.7004 817L57.5004 817.8C57.7004 818 58.1004 818 58.3004 817.8L58.8004 817.3C59.0004 817.1 59.2004 817.1 59.4004 817.2C59.9004 817.5 60.4004 817.7 60.9004 817.8C61.1004 817.9 61.3004 818.1 61.3004 818.3V819C61.3004 819.3 61.6004 819.6 61.9004 819.6H63.0004C63.3004 819.6 63.6004 819.3 63.6004 819V818.3C63.6004 818.1 63.8004 817.9 64.0004 817.8C64.5004 817.7 65.0004 817.4 65.5004 817.2C65.7004 817.1 65.9004 817.1 66.1004 817.3L66.6004 817.8C66.8004 818 67.2004 818 67.4004 817.8L68.2004 817C68.4004 816.8 68.4004 816.4 68.2004 816.2L67.7004 815.7C67.5004 815.5 67.5004 815.3 67.6004 815.1C67.9004 814.6 68.1004 814.1 68.2004 813.6C68.3004 813.4 68.5004 813.2 68.7004 813.2H69.4004C69.7004 813.2 70.0004 812.9 70.0004 812.6V811.5C69.9004 811.2 69.7004 810.9 69.4004 810.9ZM62.4004 815.7C60.4004 815.7 58.7004 814 58.7004 812C58.7004 810 60.4004 808.3 62.4004 808.3C64.4004 808.3 66.1004 810 66.1004 812C66.1004 814.1 64.5004 815.7 62.4004 815.7ZM62.6004 852.2C62.8004 852 62.9004 851.8 62.9004 851.5V846.5C62.9004 846.2 62.8004 846 62.6004 845.8C62.4004 845.6 62.2004 845.5 61.9004 845.5C61.6004 845.5 61.4004 845.6 61.2004 845.8C61.0004 846 60.9004 846.2 60.9004 846.5V851.5C60.9004 851.8 61.0004 852 61.2004 852.2C61.4004 852.4 61.6004 852.5 61.9004 852.5C62.2004 852.5 62.4004 852.4 62.6004 852.2ZM65.5004 847.7C65.3004 847.5 65.0004 847.5 64.8004 847.5C64.5004 847.5 64.3004 847.7 64.1004 847.9C63.9004 848.1 63.9004 848.4 63.9004 848.6C63.9004 848.9 64.1004 849.1 64.3004 849.3C64.8004 849.7 65.2004 850.2 65.5004 850.7C65.8004 851.3 65.9004 851.9 65.9004 852.5C65.9004 853 65.8004 853.6 65.6004 854.1C65.4004 854.6 65.1004 855 64.7004 855.4C64.3004 855.8 63.9004 856 63.4004 856.3C62.9004 856.5 62.4004 856.6 61.8004 856.6C61.3004 856.6 60.7004 856.5 60.2004 856.3C59.7004 856.1 59.3004 855.8 58.9004 855.4C58.5004 855 58.3004 854.6 58.0004 854.1C57.8004 853.6 57.7004 853.1 57.7004 852.5C57.7004 851.9 57.8004 851.3 58.1004 850.7C58.4004 850.1 58.8004 849.7 59.3004 849.3C59.5004 849.1 59.6004 848.9 59.7004 848.6C59.7004 848.3 59.7004 848.1 59.5004 847.9C59.3004 847.7 59.1004 847.5 58.8004 847.5C58.5004 847.5 58.3004 847.5 58.1004 847.7C57.3004 848.3 56.7004 849 56.3004 849.8C55.9004 850.6 55.7004 851.5 55.7004 852.5C55.7004 853.3 55.9004 854.1 56.2004 854.8C56.5004 855.5 56.9004 856.2 57.5004 856.7C58.0004 857.2 58.7004 857.7 59.4004 858C60.1004 858.3 60.9004 858.5 61.7004 858.5C62.5004 858.5 63.3004 858.3 64.0004 858C64.7004 857.7 65.4004 857.3 65.9004 856.7C66.4004 856.1 66.9004 855.5 67.2004 854.8C67.5004 854.1 67.7004 853.3 67.7004 852.5C67.7004 851.6 67.5004 850.7 67.1004 849.8C66.9004 849 66.3004 848.3 65.5004 847.7ZM67.4004 883.6L64.1004 883.3C63.9004 883.3 63.7004 883.1 63.6004 882.9L62.4004 879.9C62.2004 879.4 61.5004 879.4 61.3004 879.9L60.1004 882.9C60.0004 883.1 59.8004 883.2 59.6004 883.3L56.3004 883.6C55.8004 883.6 55.6004 884.3 56.0004 884.6L58.5004 886.9C58.7004 887 58.7004 887.3 58.7004 887.5L58.0004 890.7C57.9004 891.2 58.4004 891.6 58.8004 891.4L61.6004 889.7C61.8004 889.6 62.0004 889.6 62.2004 889.7L65.0004 891.4C65.4004 891.7 66.0004 891.3 65.8004 890.7L65.1004 887.5C65.1004 887.3 65.1004 887.1 65.3004 886.9L67.8004 884.6C68.1004 884.3 67.9004 883.7 67.4004 883.6Z" fill="#535357"/>
<path d="M62.4004 344.2C64.6004 344.2 66.4004 345.9 66.4004 348.1C66.4004 350.3 64.6004 352 62.4004 352C60.2004 352 58.4004 350.3 58.4004 348.1C58.4004 345.9 60.2004 344.2 62.4004 344.2ZM62.4004 342.2C59.1004 342.2 56.4004 344.8 56.4004 348.1C56.4004 351.4 59.1004 354 62.4004 354C65.7004 354 68.4004 351.4 68.4004 348.1C68.4004 344.8 65.7004 342.2 62.4004 342.2Z" fill="#535357"/>
<path d="M62.4004 382.8C64.6004 382.8 66.4004 384.5 66.4004 386.7C66.4004 388.9 64.6004 390.6 62.4004 390.6C60.2004 390.6 58.4004 388.9 58.4004 386.7C58.4004 384.5 60.2004 382.8 62.4004 382.8ZM62.4004 380.8C59.1004 380.8 56.4004 383.4 56.4004 386.7C56.4004 390 59.1004 392.6 62.4004 392.6C65.7004 392.6 68.4004 390 68.4004 386.7C68.4004 383.4 65.7004 380.8 62.4004 380.8Z" fill="#535357"/>
<path d="M62.4004 421.4C64.6004 421.4 66.4004 423.1 66.4004 425.3C66.4004 427.5 64.6004 429.2 62.4004 429.2C60.2004 429.2 58.4004 427.5 58.4004 425.3C58.4004 423.1 60.2004 421.4 62.4004 421.4ZM62.4004 419.4C59.1004 419.4 56.4004 422 56.4004 425.3C56.4004 428.6 59.1004 431.2 62.4004 431.2C65.7004 431.2 68.4004 428.6 68.4004 425.3C68.4004 422 65.7004 419.4 62.4004 419.4Z" fill="#535357"/>
<path d="M62.4004 460C64.6004 460 66.4004 461.7 66.4004 463.9C66.4004 466.1 64.6004 467.8 62.4004 467.8C60.2004 467.8 58.4004 466.1 58.4004 463.9C58.4004 461.7 60.2004 460 62.4004 460ZM62.4004 458C59.1004 458 56.4004 460.6 56.4004 463.9C56.4004 467.2 59.1004 469.8 62.4004 469.8C65.7004 469.8 68.4004 467.2 68.4004 463.9C68.4004 460.6 65.7004 458 62.4004 458Z" fill="#535357"/>
<path d="M62.4004 198.5C65.1618 198.5 67.4004 196.306 67.4004 193.6C67.4004 190.894 65.1618 188.7 62.4004 188.7C59.639 188.7 57.4004 190.894 57.4004 193.6C57.4004 196.306 59.639 198.5 62.4004 198.5Z" fill="white"/>
<path d="M62.4004 189.8C64.6004 189.8 66.4004 191.5 66.4004 193.7C66.4004 195.9 64.6004 197.6 62.4004 197.6C60.2004 197.6 58.4004 195.9 58.4004 193.7C58.4004 191.5 60.2004 189.8 62.4004 189.8ZM62.4004 187.8C59.1004 187.8 56.4004 190.4 56.4004 193.7C56.4004 197 59.1004 199.6 62.4004 199.6C65.7004 199.6 68.4004 197 68.4004 193.7C68.4004 190.4 65.7004 187.8 62.4004 187.8Z" fill="white"/>
<path d="M62.4004 228.4C64.6004 228.4 66.4004 230.1 66.4004 232.3C66.4004 234.5 64.6004 236.2 62.4004 236.2C60.2004 236.2 58.4004 234.5 58.4004 232.3C58.4004 230.1 60.2004 228.4 62.4004 228.4ZM62.4004 226.4C59.1004 226.4 56.4004 229 56.4004 232.3C56.4004 235.5 59.1004 238.2 62.4004 238.2C65.7004 238.2 68.4004 235.6 68.4004 232.3C68.4004 229 65.7004 226.4 62.4004 226.4Z" fill="#535357"/>
<path d="M62.4004 267C64.6004 267 66.4004 268.7 66.4004 270.9C66.4004 273.1 64.6004 274.8 62.4004 274.8C60.2004 274.8 58.4004 273.1 58.4004 270.9C58.4004 268.7 60.2004 267 62.4004 267ZM62.4004 265C59.1004 265 56.4004 267.6 56.4004 270.9C56.4004 274.2 59.1004 276.8 62.4004 276.8C65.7004 276.8 68.4004 274.2 68.4004 270.9C68.4004 267.6 65.7004 265 62.4004 265Z" fill="#535357"/>
<path d="M62.4004 305.6C64.6004 305.6 66.4004 307.3 66.4004 309.5C66.4004 311.7 64.6004 313.4 62.4004 313.4C60.2004 313.4 58.4004 311.7 58.4004 309.5C58.4004 307.3 60.2004 305.6 62.4004 305.6ZM62.4004 303.6C59.1004 303.6 56.4004 306.2 56.4004 309.5C56.4004 312.8 59.1004 315.4 62.4004 315.4C65.7004 315.4 68.4004 312.8 68.4004 309.5C68.4004 306.2 65.7004 303.6 62.4004 303.6Z" fill="#535357"/>
<path d="M62.4004 498.6C64.6004 498.6 66.4004 500.3 66.4004 502.5C66.4004 504.7 64.6004 506.4 62.4004 506.4C60.2004 506.4 58.4004 504.7 58.4004 502.5C58.4004 500.3 60.2004 498.6 62.4004 498.6ZM62.4004 496.6C59.1004 496.6 56.4004 499.2 56.4004 502.5C56.4004 505.8 59.1004 508.4 62.4004 508.4C65.7004 508.4 68.4004 505.8 68.4004 502.5C68.4004 499.2 65.7004 496.6 62.4004 496.6Z" fill="#535357"/>
<path d="M62.4004 537.2C64.6004 537.2 66.4004 538.9 66.4004 541.1C66.4004 543.3 64.6004 545 62.4004 545C60.2004 545 58.4004 543.3 58.4004 541.1C58.4004 538.9 60.2004 537.2 62.4004 537.2ZM62.4004 535.2C59.1004 535.2 56.4004 537.8 56.4004 541.1C56.4004 544.4 59.1004 547 62.4004 547C65.7004 547 68.4004 544.4 68.4004 541.1C68.4004 537.8 65.7004 535.2 62.4004 535.2Z" fill="#535357"/>
<path d="M62.4004 575.8C64.6004 575.8 66.4004 577.5 66.4004 579.7C66.4004 581.8 64.6004 583.6 62.4004 583.6C60.2004 583.6 58.4004 581.9 58.4004 579.7C58.5004 577.5 60.2004 575.8 62.4004 575.8ZM62.4004 573.8C59.1004 573.8 56.4004 576.4 56.4004 579.7C56.4004 583 59.1004 585.6 62.4004 585.6C65.7004 585.6 68.4004 583 68.4004 579.7C68.4004 576.4 65.7004 573.8 62.4004 573.8Z" fill="#535357"/>
<path d="M62.4004 614.4C64.6004 614.4 66.4004 616.1 66.4004 618.3C66.4004 620.4 64.6004 622.2 62.4004 622.2C60.2004 622.2 58.4004 620.5 58.4004 618.3C58.5004 616.2 60.2004 614.4 62.4004 614.4ZM62.4004 612.4C59.1004 612.4 56.4004 615 56.4004 618.3C56.4004 621.5 59.1004 624.2 62.4004 624.2C65.7004 624.2 68.4004 621.6 68.4004 618.3C68.4004 615 65.7004 612.4 62.4004 612.4Z" fill="#535357"/>
<path d="M62.4004 653C64.6004 653 66.4004 654.7 66.4004 656.9C66.4004 659 64.6004 660.8 62.4004 660.8C60.2004 660.8 58.4004 659.1 58.4004 656.9C58.5004 654.8 60.2004 653 62.4004 653ZM62.4004 651C59.1004 651 56.4004 653.6 56.4004 656.9C56.4004 660.2 59.1004 662.8 62.4004 662.8C65.7004 662.8 68.4004 660.2 68.4004 656.9C68.4004 653.6 65.7004 651 62.4004 651Z" fill="#535357"/>
<path d="M62.4004 691.6C64.6004 691.6 66.4004 693.3 66.4004 695.5C66.4004 697.6 64.6004 699.4 62.4004 699.4C60.2004 699.4 58.4004 697.7 58.4004 695.5C58.5004 693.4 60.2004 691.6 62.4004 691.6ZM62.4004 689.6C59.1004 689.6 56.4004 692.2 56.4004 695.5C56.4004 698.8 59.1004 701.4 62.4004 701.4C65.7004 701.4 68.4004 698.8 68.4004 695.5C68.4004 692.2 65.7004 689.6 62.4004 689.6Z" fill="#535357"/>
<path d="M62.4004 730.2C64.6004 730.2 66.4004 731.9 66.4004 734.1C66.4004 736.2 64.6004 738 62.4004 738C60.2004 738 58.4004 736.3 58.4004 734.1C58.5004 732 60.2004 730.2 62.4004 730.2ZM62.4004 728.2C59.1004 728.2 56.4004 730.8 56.4004 734.1C56.4004 737.4 59.1004 740 62.4004 740C65.7004 740 68.4004 737.4 68.4004 734.1C68.4004 730.8 65.7004 728.2 62.4004 728.2Z" fill="#535357"/>
<path d="M62.4004 768.8C64.6004 768.8 66.4004 770.5 66.4004 772.7C66.4004 774.8 64.6004 776.6 62.4004 776.6C60.2004 776.6 58.4004 774.9 58.4004 772.7C58.5004 770.6 60.2004 768.8 62.4004 768.8ZM62.4004 766.8C59.1004 766.8 56.4004 769.4 56.4004 772.7C56.4004 776 59.1004 778.6 62.4004 778.6C65.7004 778.6 68.4004 776 68.4004 772.7C68.4004 769.4 65.7004 766.8 62.4004 766.8Z" fill="#535357"/>
<path d="M25.232 75.38C23.2053 75.38 21.66 74.81 20.596 73.67C19.532 72.5047 19 70.8453 19 68.692V54.708C19 52.5547 19.532 50.908 20.596 49.768C21.66 48.6027 23.2053 48.02 25.232 48.02C27.2587 48.02 28.804 48.6027 29.868 49.768C30.932 50.908 31.464 52.5547 31.464 54.708V56.988H27.512V54.442C27.512 52.694 26.79 51.82 25.346 51.82C23.902 51.82 23.18 52.694 23.18 54.442V68.996C23.18 70.7187 23.902 71.58 25.346 71.58C26.79 71.58 27.512 70.7187 27.512 68.996V63.79H25.422V59.99H31.464V68.692C31.464 70.8453 30.932 72.5047 29.868 73.67C28.804 74.81 27.2587 75.38 25.232 75.38Z" fill="white"/>
<path d="M34.1478 48.4H40.3418C42.4951 48.4 44.0658 48.9067 45.0538 49.92C46.0418 50.908 46.5358 52.4407 46.5358 54.518V56.152C46.5358 58.9133 45.6238 60.6613 43.7998 61.396V61.472C44.8131 61.776 45.5224 62.3967 45.9278 63.334C46.3584 64.2713 46.5738 65.5253 46.5738 67.096V71.77C46.5738 72.53 46.5991 73.1507 46.6497 73.632C46.7004 74.088 46.8271 74.544 47.0298 75H42.7738C42.6218 74.5693 42.5204 74.164 42.4698 73.784C42.4191 73.404 42.3938 72.72 42.3938 71.732V66.868C42.3938 65.652 42.1911 64.8033 41.7858 64.322C41.4058 63.8407 40.7344 63.6 39.7718 63.6H38.3278V75H34.1478V48.4ZM39.8478 59.8C40.6838 59.8 41.3044 59.5847 41.7098 59.154C42.1404 58.7233 42.3558 58.0013 42.3558 56.988V54.936C42.3558 53.9733 42.1784 53.2767 41.8238 52.846C41.4944 52.4153 40.9624 52.2 40.2278 52.2H38.3278V59.8H39.8478Z" fill="white"/>
<path d="M52.7039 48.4H58.3659L62.6979 75H58.5179L57.7579 69.718V69.794H53.0079L52.2479 75H48.3719L52.7039 48.4ZM57.2639 66.184L55.4019 53.036H55.3259L53.5019 66.184H57.2639Z" fill="white"/>
<path d="M62.5477 48.4H66.7657L69.5017 69.034H69.5777L72.3137 48.4H76.1517L72.1237 75H66.5757L62.5477 48.4Z" fill="white"/>
<path d="M78.1595 48.4H89.5595V52.2H82.3395V59.23H88.0775V63.03H82.3395V71.2H89.5595V75H78.1595V48.4Z" fill="white"/>
<path d="M97.4724 75.38C95.4457 75.38 93.913 74.81 92.8744 73.67C91.8357 72.5047 91.3164 70.8453 91.3164 68.692V67.172H95.2684V68.996C95.2684 70.7187 95.9904 71.58 97.4344 71.58C98.1437 71.58 98.6757 71.3773 99.0304 70.972C99.4104 70.5413 99.6004 69.8573 99.6004 68.92C99.6004 67.8053 99.347 66.83 98.8404 65.994C98.3337 65.1327 97.3964 64.1067 96.0284 62.916C94.3057 61.396 93.1024 60.028 92.4184 58.812C91.7344 57.5707 91.3924 56.1773 91.3924 54.632C91.3924 52.5293 91.9244 50.908 92.9884 49.768C94.0524 48.6027 95.5977 48.02 97.6244 48.02C99.6257 48.02 101.133 48.6027 102.146 49.768C103.185 50.908 103.704 52.5547 103.704 54.708V55.81H99.7524V54.442C99.7524 53.53 99.575 52.8713 99.2204 52.466C98.8657 52.0353 98.3464 51.82 97.6624 51.82C96.269 51.82 95.5724 52.6687 95.5724 54.366C95.5724 55.3287 95.8257 56.228 96.3324 57.064C96.8644 57.9 97.8144 58.9133 99.1824 60.104C100.93 61.624 102.134 63.0047 102.792 64.246C103.451 65.4873 103.78 66.944 103.78 68.616C103.78 70.7947 103.236 72.4667 102.146 73.632C101.082 74.7973 99.5244 75.38 97.4724 75.38Z" fill="white"/>
</g>
<defs>
<clipPath id="clip0_10_33">
<rect width="123" height="1080" fill="white"/>
</clipPath>
</defs>
</svg>
