<svg width="123" height="1080" viewBox="0 0 123 1080" fill="none" xmlns="http://www.w3.org/2000/svg">
<rect width="123" height="1080" fill="black"/>
<rect x="56" y="40" width="12" height="960" rx="6" fill="white" fill-opacity="0.2"/>
<path d="M18.5996 1052.61V1061.5H21.3393V1052.61H18.5996Z" fill="white"/>
<path d="M24.3047 1061.5H26.9788V1055.6H28.4142V1054.72H26.9788V1053.53H24.3047V1054.72H22.8611V1055.6H24.3047V1061.5Z" fill="white"/>
<path d="M35.3585 1059.76C35.3585 1057.48 30.6585 1058.15 30.6585 1056.81C30.6585 1056.31 31.1506 1055.91 31.7576 1055.91C32.3646 1055.91 32.8567 1056.31 32.8567 1056.81V1057.25H35.3585C34.7761 1056.05 33.3735 1055.19 31.7412 1055.19C30.1007 1055.19 28.1239 1055.53 28.1239 1057.25C28.1239 1059.55 32.8239 1058.87 32.8239 1060.21C32.8239 1060.71 32.3318 1061.1 31.7248 1061.1C31.1178 1061.1 30.6256 1060.71 30.6256 1060.21V1059.76H28.1239C28.698 1060.98 30.1007 1061.83 31.7412 1061.83C33.3735 1061.83 35.3585 1061.5 35.3585 1059.76Z" fill="white"/>
<path d="M41.16 1059.57C41.16 1060.48 40.5284 1060.72 40.1101 1060.72C39.6836 1060.72 39.0602 1060.48 39.0602 1059.57V1057.46C39.0602 1056.54 39.6836 1056.31 40.1101 1056.31C40.5284 1056.31 41.1436 1056.55 41.1518 1057.46L41.16 1059.57ZM39.3555 1055.35C37.5591 1055.35 36.2303 1056.97 36.2303 1058.45C36.2303 1060.51 37.8216 1061.26 38.0595 1061.38C38.4532 1061.57 38.9043 1061.67 39.3801 1061.67C39.9543 1061.67 40.5612 1061.51 41.1354 1061.16V1062.38C41.1354 1063.47 40.43 1063.7 40.0363 1063.7C39.6426 1063.7 38.9371 1063.47 38.9371 1062.38C38.9371 1062.05 38.9453 1062.03 38.9453 1062.03H36.2795C36.7471 1063.42 38.2317 1064.45 40.0363 1064.45C42.21 1064.45 43.7848 1062.97 43.7848 1061.13V1055.56H41.1354V1055.89C40.6515 1055.62 40.1183 1055.35 39.3555 1055.35Z" fill="white"/>
<path d="M49.4884 1055.32C48.5698 1055.32 47.8151 1055.72 47.3066 1056.21V1055.58H44.6489L44.6571 1061.5H47.3066C47.3066 1061.5 47.2984 1057.87 47.2984 1057.62C47.2984 1057.1 47.8397 1056.53 48.5698 1056.53H49.4884V1055.32Z" fill="white"/>
<path d="M54.0887 1059.57C54.0887 1060.48 53.4571 1060.72 53.0387 1060.72C52.6122 1060.72 51.9888 1060.48 51.9888 1059.57V1057.46C51.9888 1056.54 52.6122 1056.31 53.0387 1056.31C53.4571 1056.31 54.0723 1056.55 54.0805 1057.46L54.0887 1059.57ZM52.2841 1055.35C50.4877 1055.35 49.1589 1056.97 49.1589 1058.45C49.1589 1060.51 50.7502 1061.26 50.9881 1061.38C51.3818 1061.57 51.833 1061.67 52.3087 1061.67C52.8829 1061.67 53.4899 1061.51 54.0641 1061.16V1061.5H56.7135V1055.56H54.0641V1055.89C53.5801 1055.62 53.0469 1055.35 52.2841 1055.35Z" fill="white"/>
<path d="M62.778 1061.5L65.37 1055.59H63.9674L62.1054 1059.83L60.2516 1055.59H57.6022L60.2024 1061.5H62.778Z" fill="white"/>
<path d="M70.5207 1059.44C70.5207 1059.44 70.5289 1059.46 70.5289 1059.79C70.5289 1060.87 69.8153 1061.11 69.4215 1061.11C69.0278 1061.11 68.306 1060.87 68.306 1059.79V1058.58H73.3342C73.3342 1056.74 71.5706 1055.22 69.3969 1055.22C67.2233 1055.22 65.4679 1056.7 65.4679 1058.54C65.4679 1060.38 67.2233 1061.86 69.3969 1061.86C71.2015 1061.86 72.719 1060.83 73.1865 1059.44H70.5207ZM70.5289 1057.27C70.5289 1057.6 70.5371 1057.59 70.5371 1057.65H68.306V1057.27C68.306 1056.19 69.0278 1055.95 69.4215 1055.95C69.8153 1055.95 70.5289 1056.19 70.5289 1057.27Z" fill="white"/>
<path d="M81.3777 1059.76C81.3777 1057.48 76.6777 1058.15 76.6777 1056.81C76.6777 1056.31 77.1698 1055.91 77.7768 1055.91C78.3838 1055.91 78.876 1056.31 78.876 1056.81V1057.25H81.3777C80.7954 1056.05 79.3927 1055.19 77.7604 1055.19C76.1199 1055.19 74.1431 1055.53 74.1431 1057.25C74.1431 1059.55 78.8431 1058.87 78.8431 1060.21C78.8431 1060.71 78.351 1061.1 77.744 1061.1C77.137 1061.1 76.6449 1060.71 76.6449 1060.21V1059.76H74.1431C74.7173 1060.98 76.1199 1061.83 77.7604 1061.83C79.3927 1061.83 81.3777 1061.5 81.3777 1059.76Z" fill="white"/>
<path d="M82.4596 1061.5H85.1336V1055.6H86.5691V1054.72H85.1336V1053.53H82.4596V1054.72H81.0159V1055.6H82.4596V1061.5Z" fill="white"/>
<path d="M90.0896 1056.21V1052.61H87.432V1061.5H90.0896V1057.51C90.1552 1057.03 90.672 1056.53 91.3446 1056.53C92.0746 1056.53 92.5668 1057.1 92.5668 1057.62V1061.5H95.2162V1058.28C95.2326 1055.99 93.2886 1055.32 92.2715 1055.32C91.3528 1055.32 90.5982 1055.72 90.0896 1056.21Z" fill="white"/>
<path d="M98.8802 1059.76L98.8884 1057.24C98.8884 1056.31 99.4462 1055.92 99.9793 1055.92C100.512 1055.92 101.07 1056.3 101.07 1057.24V1059.76C101.07 1060.7 100.512 1061.09 99.9793 1061.09C99.4462 1061.09 98.8802 1060.7 98.8802 1059.76ZM99.9957 1055.19C97.8385 1055.19 96.0913 1056.67 96.0913 1058.5C96.0913 1060.34 97.8385 1061.82 99.9957 1061.82C102.153 1061.82 103.9 1060.34 103.9 1058.5C103.9 1056.67 102.153 1055.19 99.9957 1055.19Z" fill="white"/>
<path d="M104.491 1052.92H104.132V1053.83H104.353V1053.46H104.461L104.634 1053.83H104.88L104.678 1053.43C104.801 1053.4 104.875 1053.31 104.875 1053.19C104.875 1053.01 104.752 1052.92 104.491 1052.92ZM104.466 1052.57C104.013 1052.57 103.649 1052.94 103.649 1053.39C103.649 1053.85 104.013 1054.21 104.466 1054.21C104.919 1054.21 105.288 1053.85 105.288 1053.39C105.288 1052.94 104.919 1052.57 104.466 1052.57ZM105.131 1053.39C105.131 1053.76 104.83 1054.06 104.466 1054.06C104.102 1054.06 103.807 1053.76 103.807 1053.39C103.807 1053.03 104.102 1052.73 104.466 1052.73C104.83 1052.73 105.131 1053.03 105.131 1053.39ZM104.353 1053.33V1053.07H104.452C104.584 1053.07 104.648 1053.11 104.648 1053.2C104.648 1053.29 104.589 1053.33 104.461 1053.33H104.353Z" fill="white"/>
<rect x="12.8311" y="1048.58" width="97.3377" height="18.0894" rx="9.04468" stroke="white" stroke-width="2.66229"/>
</svg>
