<svg width="150" height="50" viewBox="0 0 150 50" fill="none" xmlns="http://www.w3.org/2000/svg">
<g clip-path="url(#clip0_10_22)">
<path d="M25.8996 46.8C13.7996 46.8 4.09961 37 4.09961 25C4.09961 13 13.7996 3.2 25.8996 3.2C37.8996 3.2 47.6996 13 47.6996 25C47.6996 37 37.8996 46.8 25.8996 46.8Z" fill="#7D2559"/>
<path d="M22.7996 13.1L19.0996 36.2H22.3996L22.9996 32H27.4996L28.0996 36.2H31.7996L28.0996 13.1H22.7996V13.1ZM23.4996 28.9L25.1996 17.2L26.9996 28.9H23.4996Z" fill="white"/>
<path d="M125 0H25C11.2 0 0 11.2 0 25C0 38.8 11.2 50 25 50H125C138.8 50 150 38.8 150 25C150 11.2 138.8 0 125 0ZM25.9 46.8C13.8 46.8 4.1 37 4.1 25C4.1 13 13.8 3.2 25.9 3.2C37.9 3.2 47.7 13 47.7 25C47.7 37 37.9 46.8 25.9 46.8ZM75.1 16.4H68.8V22.8H73.8V26.1H68.8V32.9H75.1V36.2H65.2V13.1H75.1V16.4ZM88.8 36.2H85.1L80.6 19.5V36.2H77.3V13.1H81.9L85.6 26.9V13.1H88.8V36.2ZM101.6 16.4H97.8V36.2H94.2V16.4H90.4V13.1H101.6V16.4ZM113.1 16.4H106.8V22.8H111.8V26.1H106.8V32.9H113.1V36.2H103.2V13.1H113.1V16.4ZM122.9 36.2C122.7 35.6 122.6 35.2 122.6 33.4V29.8C122.6 27.7 121.9 26.9 120.2 26.9H118.9V36.3H115.3V13.1H120.8C124.6 13.1 126.2 14.8 126.2 18.4V20.2C126.2 22.6 125.4 24.1 123.8 24.9C125.6 25.7 126.2 27.4 126.2 29.8V33.4C126.2 34.5 126.2 35.3 126.6 36.2H122.9V36.2Z" fill="white"/>
<path d="M120.7 16.4H119V23.5H120.4C121.8 23.5 122.6 22.9 122.6 21.1V18.8C122.6 17.1 122 16.4 120.7 16.4Z" fill="white"/>
</g>
<defs>
<clipPath id="clip0_10_22">
<rect width="150" height="50" fill="white"/>
</clipPath>
</defs>
</svg>
