<svg width="22" height="21" viewBox="0 0 22 21" fill="none" xmlns="http://www.w3.org/2000/svg">
<path d="M14.1519 11.931L17.1609 9C17.5579 8.612 17.4689 8.242 17.0129 8.1C17.0049 8.097 17.0009 8.089 16.9929 8.086C16.9249 8.056 16.8189 8.016 16.6649 7.994L12.6119 7.405C12.3329 7.365 12.0229 7.221 11.7519 7.026C11.6099 6.922 11.4799 6.805 11.3659 6.681C11.2609 6.564 11.1719 6.44 11.1109 6.316L9.29785 2.64C9.27785 2.6 9.25385 2.57 9.23185 2.533L9.21285 2.495C9.20385 2.477 9.19185 2.472 9.18285 2.455C9.17085 2.44 9.15985 2.423 9.14785 2.409C9.01885 2.201 8.86785 2.076 8.70985 2.076C8.55985 2.076 8.41585 2.195 8.29085 2.385C8.28085 2.396 8.27285 2.41 8.26385 2.421C8.24685 2.45 8.22485 2.462 8.20885 2.495L8.18285 2.547C8.16285 2.58 8.14185 2.6 8.12285 2.64L6.30885 6.314C6.24685 6.44 6.15685 6.566 6.04985 6.685C5.93785 6.806 5.81085 6.921 5.67385 7.021C5.39985 7.22 5.08785 7.365 4.80685 7.406L0.752852 7.994C0.697852 8.002 0.633852 8.027 0.572852 8.045C0.572852 8.045 0.572852 8.045 0.571852 8.045C0.521852 8.06 0.476852 8.07 0.429852 8.093C-0.0451479 8.231 -0.142148 8.606 0.261852 9L3.26885 11.931C3.69985 12.353 3.96785 13.164 3.89085 13.773L3.20385 17.778C3.19985 17.803 3.20385 17.823 3.20185 17.846L3.17985 17.979C3.10285 18.425 3.27385 18.687 3.58385 18.687C3.70185 18.687 3.83885 18.649 3.99085 18.57L7.70785 16.615C7.98385 16.47 8.34885 16.399 8.71085 16.399C9.07485 16.399 9.43985 16.471 9.71485 16.615L13.4329 18.57C13.5819 18.649 13.7219 18.687 13.8389 18.687C14.1509 18.687 14.3199 18.425 14.2439 17.979L14.2139 17.805C14.2129 17.793 14.2159 17.786 14.2139 17.775L13.5319 13.813C13.4389 13.2 13.7129 12.361 14.1519 11.931ZM12.5329 13.906L13.1069 17.256L10.1039 15.675C9.71785 15.472 9.22285 15.36 8.70885 15.36C8.19785 15.36 7.70385 15.472 7.31585 15.675L4.30885 17.245L4.88085 13.905C5.03385 13.021 4.66385 11.882 4.01985 11.255L1.59585 8.882L4.94985 8.395C5.83685 8.267 6.80685 7.562 7.20485 6.756L8.69985 3.689L10.2129 6.757C10.6099 7.563 11.5799 8.267 12.4679 8.394L15.8229 8.89L13.3909 11.257C12.7529 11.884 12.3839 13.023 12.5329 13.906Z" fill="#C7C4EE"/>
</svg>
